<?xml version="1.0" encoding="iso-8859-1"?>
<!-- Uploaded to: SVG Repo, www.svgrepo.com, Generator: SVG Repo Mixer Tools -->
<!DOCTYPE svg PUBLIC "-//W3C//DTD SVG 1.1//EN" "http://www.w3.org/Graphics/SVG/1.1/DTD/svg11.dtd">
<svg fill="#000000" height="800px" width="800px" version="1.1" id="Capa_1" xmlns="http://www.w3.org/2000/svg" xmlns:xlink="http://www.w3.org/1999/xlink" 
	 viewBox="0 0 317.366 317.366" xml:space="preserve">
<path d="M176.909,169.926c0-4.418,3.582-8,8-8h1.33c4.418,0,8,3.582,8,8s-3.582,8-8,8h-1.33
	C180.49,177.926,176.909,174.344,176.909,169.926z M187.815,230.284c0,4.418,3.582,8,8,8h1.33c4.418,0,8-3.582,8-8s-3.582-8-8-8
	h-1.33C191.397,222.284,187.815,225.865,187.815,230.284z M233.847,203.526h1.33c4.418,0,8-3.582,8-8s-3.582-8-8-8h-1.33
	c-4.418,0-8,3.582-8,8S229.429,203.526,233.847,203.526z M65.357,185.446h1.33c4.418,0,8-3.582,8-8s-3.582-8-8-8h-1.33
	c-4.418,0-8,3.582-8,8S60.939,185.446,65.357,185.446z M299.933,301.366H17.432c-4.418,0-8,3.582-8,8s3.582,8,8,8h282.501
	c4.418,0,8-3.582,8-8S304.352,301.366,299.933,301.366z M11.242,133.085V86.606c0-4.418,3.582-8,8-8h31.278L12.303,11.982
	c-2.198-3.833-0.874-8.722,2.959-10.92c3.832-2.198,8.721-0.874,10.92,2.959l42.784,74.585h229.155c4.418,0,8,3.582,8,8v46.479
	c0,1.365-0.019,2.731-0.056,4.087c0.098,0.822,0.067,1.654-0.088,2.463c-3.437,78.274-68.191,140.892-147.296,140.892
	C77.383,280.526,11.242,214.384,11.242,133.085z M58.646,144.438c-8.919,6.942-19.946,10.103-29.419,11.475
	c10.839,61.632,64.765,108.613,129.456,108.613c65.982,0,120.766-48.876,130.053-112.323c-23.818,8.757-56.289,4.568-76.094-6.96
	c-22.237-12.944-57.14-13.328-73.227-0.805c-3.486,2.713-8.513,2.088-11.227-1.399c-2.714-3.487-2.087-8.513,1.399-11.227
	c23.49-18.287,66.073-14.969,91.104-0.397c20.171,11.741,52.486,12.625,69.429,2.501c0.001-0.278,0.002-0.553,0.002-0.831V94.606
	H78.144l40.588,70.756c13.404-3.666,27.97,2.001,35.216,14.552l9.641,16.699c8.612,14.92,3.481,34.064-11.436,42.675
	c-7.203,4.159-15.62,5.259-23.698,3.095c-8.077-2.164-14.817-7.323-18.977-14.528l-9.644-16.704
	c-7.233-12.53-4.771-28.042,5.041-37.79L59.699,94.606H27.242v38.479c0,2.322,0.06,4.625,0.18,6.918
	c8.787-1.343,16.23-4.17,21.396-8.191c3.486-2.713,8.513-2.087,11.227,1.4C62.759,136.698,62.132,141.724,58.646,144.438z
	 M113.692,203.153l9.643,16.703c2.023,3.503,5.312,6.015,9.261,7.073c3.948,1.058,8.053,0.526,11.557-1.497
	c7.279-4.201,9.781-13.541,5.58-20.82l-9.641-16.698c-4.031-6.982-13.119-9.621-20.262-5.884c-0.208,0.108-0.392,0.21-0.576,0.315
	C111.989,186.552,109.494,195.881,113.692,203.153z"/>
</svg>